<?xml version="1.0" standalone="no"?><!DOCTYPE svg PUBLIC "-//W3C//DTD SVG 1.1//EN" "http://www.w3.org/Graphics/SVG/1.1/DTD/svg11.dtd"><svg t="1604995404396" class="icon" viewBox="0 0 1024 1024" version="1.1" xmlns="http://www.w3.org/2000/svg" p-id="2759" xmlns:xlink="http://www.w3.org/1999/xlink" width="16" height="16"><defs><style type="text/css"></style></defs><path d="M148.48 832.113778h426.496a26.567111 26.567111 0 1 1 0 53.191111H148.48a118.272 118.272 0 0 1-116.110222-109.795556V216.632889C32.369778 157.923556 89.770667 113.777778 148.48 113.777778h743.765333a95.402667 95.402667 0 0 1 96.483556 102.855111v290.531555a26.567111 26.567111 0 1 1-53.134222 0V229.660444a56.888889 56.888889 0 0 0-56.888889-56.888888H142.392889a56.888889 56.888889 0 0 0-56.888889 56.888888v545.848889c4.266667 31.800889 30.947556 55.751111 62.976 56.604445z m567.466667-262.257778h250.311111a26.567111 26.567111 0 0 1 0 52.906667H825.457778c92.728889 53.134222 137.102222 151.950222 137.102222 264.135111a26.567111 26.567111 0 0 1-26.510222 24.974222 28.728889 28.728889 0 0 1-29.013334-26.567111c0-110.592-58.197333-190.577778-164.465777-249.571556v196.380445a26.567111 26.567111 0 1 1-53.134223 0v-241.550222a22.869333 22.869333 0 0 1 26.567112-20.707556zM515.925333 384.284444h323.356445a28.444444 28.444444 0 0 1 0 56.888889H515.925333a28.444444 28.444444 0 1 1 0-56.888889z m-341.333333-113.777777h664.689778a28.444444 28.444444 0 0 1 0 56.888889H174.592a28.444444 28.444444 0 1 1 0-56.888889z m154.624 313.230222h63.715556c17.578667 0 31.914667 14.336 31.914666 31.857778 0 17.521778-14.336 31.857778-31.857778 31.857777H329.159111v79.758223c0 17.521778-14.392889 31.857778-31.914667 31.857777a31.971556 31.971556 0 0 1-31.857777-31.857777V647.395556H201.671111a31.971556 31.971556 0 0 1-31.857778-31.857778c0-17.521778 14.279111-31.857778 31.857778-31.857778h63.715556v-27.875556L187.335111 472.860444a35.271111 35.271111 0 0 1 0-47.047111 29.923556 29.923556 0 0 1 43.861333 0L297.301333 496.071111l66.958223-70.144a29.297778 29.297778 0 0 1 43.804444 0 35.271111 35.271111 0 0 1 0 47.047111L329.272889 555.804444v27.875556z" p-id="2760"></path></svg>