<?xml version="1.0" standalone="no"?><!DOCTYPE svg PUBLIC "-//W3C//DTD SVG 1.1//EN" "http://www.w3.org/Graphics/SVG/1.1/DTD/svg11.dtd"><svg t="1605598496718" class="icon" viewBox="0 0 1027 1024" version="1.1" xmlns="http://www.w3.org/2000/svg" p-id="4052" xmlns:xlink="http://www.w3.org/1999/xlink" width="16.046875" height="16"><defs><style type="text/css"></style></defs><path d="M1024 878.933333h-307.2L571.733333 716.8h-139.946666l-145.066667 162.133333H0V411.306667L191.146667 230.4h641.706666l191.146667 180.906667v467.626666z m-276.48-68.266666h208.213333V442.026667L805.546667 298.666667H216.746667l-150.186667 143.36v368.64h189.44l145.066667-162.133334h201.386666l145.066667 162.133334z" p-id="4053"></path><path d="M148.48 494.933333h204.8v68.266667h-204.8z" p-id="4054"></path><path d="M634.88 494.933333h204.8v68.266667H634.88z" p-id="4055"></path><path d="M216.746667 426.666667h68.266666v204.8h-68.266666z" p-id="4056"></path><path d="M631.466667 290.133333h-238.933334V119.466667h238.933334v170.666666z m-170.666667-68.266666h102.4v-34.133334h-102.4v34.133334z" p-id="4057"></path></svg>