<?xml version="1.0" standalone="no"?><!DOCTYPE svg PUBLIC "-//W3C//DTD SVG 1.1//EN" "http://www.w3.org/Graphics/SVG/1.1/DTD/svg11.dtd"><svg t="1605598561322" class="icon" viewBox="0 0 1024 1024" version="1.1" xmlns="http://www.w3.org/2000/svg" p-id="4776" xmlns:xlink="http://www.w3.org/1999/xlink" width="16" height="16"><defs><style type="text/css"></style></defs><path d="M470.464513 303.810401l0.053212 0 375.709941-1.27197c7.247054-0.01842 13.888312-4.02364 17.251919-10.451026 3.402493-6.432503 2.940982-14.173814-1.130753-20.160155L743.73434 97.927333c-2.942005-4.315282-7.455809-7.267521-12.55699-8.227382-5.101181-0.975211-10.397814 0.150426-14.683421 3.071965L459.425086 268.030499c-7.121188 4.858658-10.217712 13.766538-7.684006 21.98471C454.289112 298.213939 461.872834 303.810401 470.464513 303.810401L470.464513 303.810401zM939.365926 290.582121c-17.571191-4.111644-35.144428 6.78145-39.257096 24.363897l-9.315156 39.916105L290.653241 354.862123l-17.325597-81.44494c-3.203972-15.092743-16.523325-25.864064-31.954783-25.864064L91.390965 247.553119c-18.048051 0-32.663934 14.606673-32.663934 32.645514 0 18.042935 14.611789 32.663934 32.663934 32.663934l123.556037 0 84.21196 395.796418c3.241834 15.072277 16.523325 25.844621 31.954783 25.844621l512.066515 0c15.184841 0 28.343535-10.437723 31.813566-25.209148l88.726787-379.461381C967.816908 312.260863 956.905394 294.689672 939.365926 290.582121L939.365926 290.582121zM357.539604 669.195182l-52.998051-249.036913 23.984251 0c0.355087 0.665149 0.567935 1.378393 1.010003 2.018983l168.404478 247.01793L357.539604 669.195182 357.539604 669.195182zM817.281403 669.195182 535.773961 669.195182 870.673427 440.899662 817.281403 669.195182 817.281403 669.195182zM430.184111 813.632805c-40.280402 0-72.930009 32.645514-72.930009 72.946382 0 40.22719 32.648584 72.891124 72.930009 72.891124 40.260959 0 72.891124-32.663934 72.891124-72.891124C503.075235 846.278319 470.444047 813.632805 430.184111 813.632805L430.184111 813.632805zM743.682152 813.632805c-40.281425 0-72.925916 32.645514-72.925916 72.946382 0 40.22719 32.644491 72.891124 72.925916 72.891124 40.266076 0 72.89624-32.663934 72.89624-72.891124C816.573275 846.278319 783.947204 813.632805 743.682152 813.632805L743.682152 813.632805zM743.682152 813.632805" p-id="4777"></path></svg>