<?xml version="1.0" standalone="no"?><!DOCTYPE svg PUBLIC "-//W3C//DTD SVG 1.1//EN" "http://www.w3.org/Graphics/SVG/1.1/DTD/svg11.dtd"><svg t="1605598527199" class="icon" viewBox="0 0 1024 1024" version="1.1" xmlns="http://www.w3.org/2000/svg" p-id="4339" xmlns:xlink="http://www.w3.org/1999/xlink" width="16" height="16"><defs><style type="text/css"></style></defs><path d="M308 828.4H163.3c-17.6 0-32-14.4-32-32V508.8c0-17.6 14.4-32 32-32H308c17.6 0 32 14.4 32 32v287.6c0 17.6-14.4 32-32 32z m-136.7-40H300V516.8H171.3v271.6z" p-id="4340"></path><path d="M213.9 741.3m-26.8 0a26.8 26.8 0 1 0 53.6 0 26.8 26.8 0 1 0-53.6 0Z" p-id="4341"></path><path d="M738.1 735.7H572.2c-11 0-20-9-20-20s9-20 20-20h165.9c5.2 0 10-3 12.3-7.8l0.6-1.3c1.6-3.3 1.7-7.2 0.4-10.7l-2.4-6.3c-2-5.2-7.1-8.7-12.7-8.7H594.4c-9.6 0-19-2.6-27.3-7.5l-116.4-69c-2.1-1.2-4.5-1.9-6.9-1.9H335c-11 0-20-9-20-20s9-20 20-20h108.8c9.6 0 19 2.6 27.3 7.5l116.4 69c2.1 1.2 4.5 1.9 6.9 1.9h141.9c22 0 42.1 13.8 50 34.3l2.4 6.3c5.2 13.6 4.7 29-1.6 42.1l-0.6 1.3c-8.8 18.7-27.8 30.8-48.4 30.8z" p-id="4342"></path><path d="M587.9 849c-0.1 0-0.1 0 0 0-102.8 0-262.5-103.4-269.3-107.8-9.3-6-11.9-18.4-5.8-27.7 6-9.3 18.4-11.9 27.7-5.8 1.6 1 156.5 101.3 247.3 101.3h0.1c75.6 0 140.7-25.7 182-47.3 46.5-24.3 89-57.4 111-86.4 10.2-13.5 13.5-26.2 8.1-31.4-6.5-6.3-26.4-7.2-48.4 10.7-17.9 14.6-31.4 24.5-41.1 30.2-5.7 3.3-19.1 11.1-31.5 3.6-7.7-4.6-11.6-13.6-9.9-22.4 2.1-10.2 11.5-17 21.6-16 5-2.9 15.5-9.9 35.6-26.4 39.2-32 80.7-28.5 101.4-8.6 10.4 10.1 15.7 24 14.8 39.3-0.9 14.6-7.2 29.7-18.7 45-25.7 34-72.2 70.5-124.3 97.8-45.3 23.7-116.9 51.9-200.6 51.9z" p-id="4343"></path><path d="M495.1 353.3a151.1 151.1 0 1 0 302.2 0 151.1 151.1 0 1 0-302.2 0Z" p-id="4344"></path><path d="M646.2 145.5c-114.6 0-207.8 93.2-207.8 207.8S531.7 561 646.2 561C760.8 561 854 467.8 854 353.3s-93.2-207.8-207.8-207.8z m0 375.5c-92.5 0-167.8-75.3-167.8-167.8s75.3-167.8 167.8-167.8S814 260.8 814 353.3 738.7 521 646.2 521z" p-id="4345"></path><path d="M651 366.9L574.7 282c-6.5-7.2-5.9-18.3 1.3-24.8s18.3-5.9 24.8 1.3l48.9 54.3 43.4-53.6c6.1-7.5 17.1-8.7 24.7-2.6 7.5 6.1 8.7 17.1 2.6 24.7L651 366.9z" p-id="4346"></path><path d="M710.1 363.3H584.4c-9.7 0-17.5-7.8-17.5-17.5s7.8-17.5 17.5-17.5h125.8c9.7 0 17.5 7.8 17.5 17.5s-7.9 17.5-17.6 17.5zM710.1 416.6H584.4c-9.7 0-17.5-7.8-17.5-17.5s7.8-17.5 17.5-17.5h125.8c9.7 0 17.5 7.8 17.5 17.5s-7.9 17.5-17.6 17.5z" p-id="4347"></path><path d="M648.8 463.8c-9.7 0-17.5-7.8-17.5-17.5V345.8c0-9.7 7.8-17.5 17.5-17.5s17.5 7.8 17.5 17.5v100.5c0 9.6-7.8 17.5-17.5 17.5z" p-id="4348"></path></svg>