<?xml version="1.0" standalone="no"?><!DOCTYPE svg PUBLIC "-//W3C//DTD SVG 1.1//EN" "http://www.w3.org/Graphics/SVG/1.1/DTD/svg11.dtd"><svg t="1605598576911" class="icon" viewBox="0 0 1418 1024" version="1.1" xmlns="http://www.w3.org/2000/svg" p-id="5056" xmlns:xlink="http://www.w3.org/1999/xlink" width="22.15625" height="16"><defs><style type="text/css"></style></defs><path d="M1279.36930501 841.28428584a38.67428584 38.67428584 0 0 1-38.82857168-38.82857168l-1.19571416-268.25142832c0-49.32-40.07571416-90-90.01285751-90H160.39930501v300.24c0 14.18142833 11.71285752 25.90714248 25.89428584 25.90714249h63.51428496c21.57428584 0 38.21142832 17.25428584 38.2114292 38.82857167 0 21.58714248-17.25428584 38.85428584-38.22428584 38.85428584H186.29359085C129.56787581 848.03428584 83.33359085 801.78714248 83.33359085 745.06142833V406.58428584a38.67428584 38.67428584 0 0 1 38.84142832-38.82857168h1027.77428584c91.86428584 0 167.07857168 74.58428584 167.0785708 167.06571416l1.18285752 268.23857168c-0.61714248 20.95714248-17.87142832 38.22428584-38.82857168 38.22428584z" p-id="5057"></path><path d="M1111.90501917 769.14285752h155.03142832C1302.22930501 769.14285752 1304.76216165 786.28142832 1304.76216165 807.71428584s-3.53571416 38.57142832-38.8285708 38.57142832H1114.86216165m-185.42571416 0h-409.75714249C483.83359085 846.28571416 456.19073333 829.14714248 456.19073333 807.71428584s28.67142832-38.57142832 63.48857168-38.57142832H931.90501917M217.74216165 444.80857168a38.25 38.25 0 0 1-19.73571416-5.5414292c-18.48857168-11.10857168-24.04285752-34.53428584-12.94714249-53.02285664C290.71930501 212.99428584 348.61501917 117.67142833 358.78501917 100.31428584 374.03359085 74.26571416 394.24501917 63.17 423.04501917 63.17h373.62857168c16.03285752 0 38.59714248 0 53.19 21.36857168l303.17142832 294.3a38.14714248 38.14714248 0 0 1 0.61714248 54.25714248 38.14714248 38.14714248 0 0 1-54.25714248 0.61714336L796.67359085 139.61857167h-373.62857168l-172.63285752 286.07142833c-6.77571416 12.96-19.72285752 19.11857168-32.67 19.11857168z" p-id="5058"></path><path d="M649.31787581 444.80857168A38.67428584 38.67428584 0 0 1 610.47644749 405.98V101.99857167a38.67428584 38.67428584 0 0 1 38.84142832-38.82857167 38.67428584 38.67428584 0 0 1 38.8414292 38.82857168v304.58571416c-0.61714248 20.95714248-17.87142832 38.21142832-38.8414292 38.21142832zM374.34216165 959.62142832c-82.62 0-150.42857168-67.20428584-150.4285708-150.4285708 0-83.23714248 67.80857168-149.82428584 150.4285708-149.82428584 82.62 0 150.42857168 67.20428584 150.42857168 150.4285708 0 83.23714248-67.80857168 149.82428584-150.42857168 149.82428584z m0-223.18714248c-40.07571416 0-73.37571416 32.68285752-73.37571416 73.37571416a73.15714248 73.15714248 0 0 0 73.37571416 73.36285752c40.69285752 0 72.74571416-33.3 72.74571416-73.98a72.48857168 72.48857168 0 0 0-72.74571416-72.75857168z m662.16857168 223.2c-82.62 0-150.44142833-67.21714248-150.44142833-150.44142832 0-83.23714248 67.20428584-150.44142833 150.42857081-150.4414292 82.62 0 150.44142833 67.20428584 150.44142919 150.42857168 0 83.23714248-67.82142832 150.44142833-150.42857167 150.44142832z m0-223.2c-40.07571416 0-73.37571416 32.68285752-73.37571416 73.37571416a73.15714248 73.15714248 0 0 0 73.37571416 73.36285752 73.15714248 73.15714248 0 0 0 73.36285752-73.36285752c0-40.69285752-33.3-73.37571416-73.36285752-73.37571416z" p-id="5059"></path></svg>