<?xml version="1.0" standalone="no"?><!DOCTYPE svg PUBLIC "-//W3C//DTD SVG 1.1//EN" "http://www.w3.org/Graphics/SVG/1.1/DTD/svg11.dtd"><svg t="1606458807468" class="icon" viewBox="0 0 1024 1024" version="1.1" xmlns="http://www.w3.org/2000/svg" p-id="5692" xmlns:xlink="http://www.w3.org/1999/xlink" width="16" height="16"><defs><style type="text/css"></style></defs><path d="M913.227294 930.635294c17.648941 0 29.936941 12.288 29.936941 29.936941v4.99953a28.611765 28.611765 0 0 1-29.936941 29.936941H563.681882a28.611765 28.611765 0 0 1-29.936941-29.936941v-4.99953c0-17.648941 12.288-29.936941 29.936941-29.936941h349.545412zM538.684235 31.744c37.586824 0 64.873412 27.286588 64.873412 64.933647v46.381177c46.983529 16.143059 88.545882 41.020235 120.711529 72.282352l41.140706-22.889411c6.264471-5.903059 16.143059-9.155765 27.828706-9.155765 7.228235 0 14.757647 1.204706 21.684706 3.553882 19.094588 6.324706 32.888471 18.191059 37.948235 32.587294l59.753412 104.688942c15.841882 31.623529 6.264471 69.571765-21.805176 86.377411l-41.984 23.371295c4.457412 24.274824 4.457412 48.670118 4.457411 72.282352 0 23.612235 0 48.067765-4.457411 72.282353l41.743059 23.190589c10.902588 5.481412 21.564235 16.143059 27.105882 27.105882l3.614118 7.228235h-84.329412l-54.332236-32.527059 5.842824-23.491764c6.686118-33.008941 9.938824-58.789647 9.938824-78.787765 0-19.877647-3.252706-45.658353-9.878589-78.607059l-6.144-18.492235 79.510589-47.706353h1.325176v-8.673882l-59.873882-104.869647v-1.325177h-8.613647l-77.101177 46.200471-17.709176-17.709177c-38.369882-38.430118-77.703529-58.548706-132.698353-73.667764l-23.491765-5.842824V96.677647c0-2.288941-2.831059-5.059765-5.059765-5.059765h-119.868235c-2.228706 0-4.999529 2.770824-4.999529 5.059765v93.786353l-23.612236 5.842824c-57.464471 17.287529-102.219294 35.418353-132.638117 70.174117l-18.251294 20.720941-78.185412-41.682823-0.481883-0.542118c-1.686588-1.626353-3.252706-3.192471-3.734588-3.433412l-1.024-0.060235H154.202353v1.325177l-59.934118 104.809411a26.925176 26.925176 0 0 0 0.963765 8.734118h0.421647l79.269647 47.585882-5.842823 23.43153c-4.879059 24.214588-9.878588 49.212235-9.878589 78.787764 0 19.877647 3.192471 45.598118 9.878589 78.848l5.842823 23.43153-79.269647 47.465412H94.569412a19.877647 19.877647 0 0 0-0.301177 3.734588l59.934118 104.869647v1.325176h8.613647l77.101176-46.20047 17.709177 17.709176a330.450824 330.450824 0 0 0 132.638118 78.607059l23.612235 5.963294v93.786353c0 2.228706 2.770824 4.999529 4.999529 4.99953H483.689412v59.813647H418.816c-37.586824 0-64.873412-27.226353-64.873412-64.813177v-46.381176c-33.731765-11.625412-80.715294-33.430588-120.711529-72.342589l-41.562353 23.070118c-9.035294 5.963294-18.672941 9.035294-28.912941 9.035294-6.384941 0-13.010824-1.204706-20.178824-3.614117-19.094588-6.384941-32.888471-18.251294-37.948235-32.587295l-59.753412-104.749176C29.033412 656.564706 38.550588 618.616471 66.680471 601.810824l0.180705-0.120471 41.803295-23.190588C104.207059 554.164706 104.207059 529.769412 104.207059 506.157176s0-48.007529 4.397176-72.282352L66.861176 410.684235a60.235294 60.235294 0 0 1-30.84047-38.550588c-4.818824-18.070588-1.505882-37.526588 9.035294-53.368471l59.873882-104.869647c11.926588-17.889882 22.768941-27.105882 37.586824-32.045176a42.887529 42.887529 0 0 1 13.613176-2.228706c11.083294 0 22.648471 4.156235 35.538824 12.649412l41.502118 23.070117c40.056471-38.972235 86.979765-60.717176 120.711529-72.282352v-46.381177c0-37.647059 27.286588-64.933647 64.873412-64.933647h119.868235z m374.543059 774.023529c17.648941 0 29.936941 12.348235 29.936941 29.997177a28.611765 28.611765 0 0 1-29.936941 29.936941H563.681882a28.611765 28.611765 0 0 1-29.936941-29.936941c0-17.648941 12.288-29.936941 29.936941-29.936941h349.545412z m0-124.807529c17.648941 0 29.936941 12.348235 29.936941 29.997176v4.939295a28.672 28.672 0 0 1-29.936941 29.936941H563.681882a28.672 28.672 0 0 1-29.936941-29.936941v-4.939295c0-17.648941 12.288-29.997176 29.936941-29.997176h349.545412zM478.750118 306.416941a183.717647 183.717647 0 0 1 130.891294 53.910588 183.717647 183.717647 0 0 1 53.850353 130.831059 183.717647 183.717647 0 0 1-53.850353 130.891294 183.717647 183.717647 0 0 1-130.891294 53.910589 183.717647 183.717647 0 0 1-130.831059-53.910589 183.717647 183.717647 0 0 1-53.910588-130.891294c0-49.633882 19.154824-96.075294 53.910588-130.831059a183.717647 183.717647 0 0 1 130.831059-53.910588z m0 59.873883c-67.704471 0-124.867765 57.223529-124.867765 124.867764 0 67.704471 57.223529 124.928 124.867765 124.928 67.704471 0 124.867765-57.223529 124.867764-124.928 0-67.704471-57.223529-124.867765-124.867764-124.867764z" p-id="5693"></path></svg>