<?xml version="1.0" standalone="no"?><!DOCTYPE svg PUBLIC "-//W3C//DTD SVG 1.1//EN" "http://www.w3.org/Graphics/SVG/1.1/DTD/svg11.dtd"><svg t="1604995420056" class="icon" viewBox="0 0 1024 1024" version="1.1" xmlns="http://www.w3.org/2000/svg" p-id="2901" xmlns:xlink="http://www.w3.org/1999/xlink" width="16" height="16"><defs><style type="text/css"></style></defs><path d="M235.22 148.72h446.45L631.84 65H275.08l-39.86 83.72zM707.57 180H210a59.79 59.79 0 0 0-59.79 59.79v531.3a59.79 59.79 0 0 0 59.79 59.8h279.64c-7.6-38.1-5.32-78.19 8.22-115.24A223.72 223.72 0 0 1 578.36 610c36.14-25.91 80.81-39.38 125.15-39.53a242.6 242.6 0 0 1 36 3.1 201.19 201.19 0 0 1 27.86 6.33V239.8a59.79 59.79 0 0 0-59.8-59.8zM301.71 285.87h314a23.92 23.92 0 1 1 0 47.83h-314a23.92 23.92 0 1 1 0-47.83zM615.73 504h-314a23.92 23.92 0 1 1 0-47.83h314a23.92 23.92 0 1 1 0 47.83z" p-id="2902"></path><path d="M703.51 618.43a170.29 170.29 0 1 0 170.28 170.28 170.29 170.29 0 0 0-170.28-170.28z m87.69 194.2h-63.78v63.78c0 13.41-10.95 23.34-23.91 23.92s-23.92-11.41-23.92-23.92v-63.78h-63.78c-13.41 0-23.34-11-23.92-23.91s11.41-23.92 23.92-23.92h63.78V701c0-13.41 11-23.34 23.92-23.92s23.91 11.41 23.91 23.92v63.8h63.78c13.41 0 23.34 11 23.92 23.92s-11.4 23.91-23.92 23.91z" p-id="2903"></path></svg>