<?xml version="1.0" standalone="no"?><!DOCTYPE svg PUBLIC "-//W3C//DTD SVG 1.1//EN" "http://www.w3.org/Graphics/SVG/1.1/DTD/svg11.dtd"><svg t="1604995381474" class="icon" viewBox="0 0 1024 1024" version="1.1" xmlns="http://www.w3.org/2000/svg" p-id="2476" xmlns:xlink="http://www.w3.org/1999/xlink" width="16" height="16"><defs><style type="text/css"></style></defs><path d="M469.58056992 938.50183925H312.4715696V159.24119772c0-43.36208409 35.19241606-78.55450015 78.55450017-78.55450015s78.55450015 35.19241606 78.55450015 78.55450015v779.26064153zM227.63270943 938.50183925H70.52370914V443.60848828c0-43.36208409 35.19241606-78.55450015 78.55450013-78.55450016s78.55450015 35.19241606 78.55450016 78.55450016v494.89335097zM711.5284304 938.50183925H554.41943008V322.63455805c0-43.36208409 35.19241606-78.55450015 78.55450015-78.55450017s78.55450015 35.19241606 78.55450017 78.55450017v615.8672812zM953.47629086 938.50183925H796.36729057V542.58715847c0-43.36208409 35.19241606-78.55450015 78.55450016-78.55450017s78.55450015 35.19241606 78.55450013 78.55450017v395.91468078z" p-id="2477"></path></svg>