<?xml version="1.0" standalone="no"?><!DOCTYPE svg PUBLIC "-//W3C//DTD SVG 1.1//EN" "http://www.w3.org/Graphics/SVG/1.1/DTD/svg11.dtd"><svg t="1605598572293" class="icon" viewBox="0 0 1024 1024" version="1.1" xmlns="http://www.w3.org/2000/svg" p-id="4914" xmlns:xlink="http://www.w3.org/1999/xlink" width="16" height="16"><defs><style type="text/css"></style></defs><path d="M635.5 98.15c-130.42 0-237.21 103.12-243.09 232.12L147.16 684.51l38.22 38.22c-24.69 29.59-42.73 75.3-15.53 129.7 24.84 49.68 80.58 75.78 153.47 75.78 39.65 0 84.39-7.73 131.97-23.59 18.21-6.08 28.05-25.76 21.99-43.97-6.08-18.22-25.74-28.05-43.98-21.99-97.19 32.4-179.95 25.27-201.26-17.33-10.39-20.78-5.46-37.42 2.68-49.26l57.76 57.76 354.24-245.24c129-5.88 232.12-112.67 232.12-243.09 0-134.18-109.16-243.35-243.34-243.35zM237.35 676.38l180.21-260.3 143.36 143.35-260.31 180.22-63.26-63.27zM635.5 510.75h-10.86l-5.62 6.18-161.99-160.1 3.12-4.47V341.5c0-95.84 78.74-173.82 174.58-173.82s174.2 75.69 174.2 171.53-77.59 171.54-173.43 171.54z" p-id="4915"></path></svg>